<!DOCTYPE svg PUBLIC "-//W3C//DTD SVG 1.1//EN" "http://www.w3.org/Graphics/SVG/1.1/DTD/svg11.dtd">
<!-- Uploaded to: SVG Repo, www.svgrepo.com, Transformed by: SVG Repo Mixer Tools -->
<svg fill="#4b72ce" width="800px" height="800px" viewBox="0 0 32 32" version="1.1" xmlns="http://www.w3.org/2000/svg" stroke="#4b72ce">
<g id="SVGRepo_bgCarrier" stroke-width="0"/>
<g id="SVGRepo_tracerCarrier" stroke-linecap="round" stroke-linejoin="round"/>
<g id="SVGRepo_iconCarrier"> <title>pin</title> <path d="M4 12q0-3.264 1.6-6.016t4.384-4.352 6.016-1.632 6.016 1.632 4.384 4.352 1.6 6.016q0 1.376-0.672 3.2t-1.696 3.68-2.336 3.776-2.56 3.584-2.336 2.944-1.728 2.080l-0.672 0.736q-0.256-0.256-0.672-0.768t-1.696-2.016-2.368-3.008-2.528-3.52-2.368-3.84-1.696-3.616-0.672-3.232zM8 12q0 3.328 2.336 5.664t5.664 2.336 5.664-2.336 2.336-5.664-2.336-5.632-5.664-2.368-5.664 2.368-2.336 5.632z"/> </g>
</svg>