<svg xmlns="http://www.w3.org/2000/svg" style="display: none;">
  <symbol id="icon-description" viewBox="0 -960 960 960">
    <path d="M320-240h320v-80H320v80Zm0-160h320v-80H320v80ZM240-80q-33 0-56.5-23.5T160-160v-640q0-33 23.5-56.5T240-880h320l240 240v480q0 33-23.5 56.5T720-80H240Zm280-520v-200H240v640h480v-440H520ZM240-800v200-200 640-640Z"/>
  </symbol>
  <symbol id="icon-localizaca" viewBox="0 -960 960 960">
    <path d="M480-301q99-80 149.5-154T680-594q0-90-56-148t-144-58q-88 0-144 58t-56 148q0 65 50.5 139T480-301Zm0 101Q339-304 269.5-402T200-594q0-125 78-205.5T480-880q124 0 202 80.5T760-594q0 94-69.5 192T480-200Zm0-320q33 0 56.5-23.5T560-600q0-33-23.5-56.5T480-680q-33 0-56.5 23.5T400-600q0 33 23.5 56.5T480-520ZM200-80v-80h560v80H200Zm280-520Z"/>
  </symbol>
  <symbol id="icon-calendar" viewBox="0 -960 960 960">
    <path d="M200-80q-33 0-56.5-23.5T120-160v-560q0-33 23.5-56.5T200-800h40v-80h80v80h320v-80h80v80h40q33 0 56.5 23.5T840-720v560q0 33-23.5 56.5T760-80H200Zm0-80h560v-400H200v400Zm0-480h560v-80H200v80Zm0 0v-80 80Z"/>
  </symbol>
  <symbol id="icon-payment" viewBox="0 -960 960 960">
    <path d="M560-440q-50 0-85-35t-35-85q0-50 35-85t85-35q50 0 85 35t35 85q0 50-35 85t-85 35ZM280-320q-33 0-56.5-23.5T200-400v-320q0-33 23.5-56.5T280-800h560q33 0 56.5 23.5T920-720v320q0 33-23.5 56.5T840-320H280Zm80-80h400q0-33 23.5-56.5T840-480v-160q-33 0-56.5-23.5T760-720H360q0 33-23.5 56.5T280-640v160q33 0 56.5 23.5T360-400Zm440 240H120q-33 0-56.5-23.5T40-240v-440h80v440h680v80ZM280-400v-320 320Z"/>
  </symbol>
</svg>
